<?xml version="1.0" standalone="no"?>
<!DOCTYPE svg PUBLIC "-//W3C//DTD SVG 20010904//EN"
 "http://www.w3.org/TR/2001/REC-SVG-20010904/DTD/svg10.dtd">
<svg version="1.0" xmlns="http://www.w3.org/2000/svg"
 width="512.000000pt" height="512.000000pt" viewBox="0 0 512.000000 512.000000"
 preserveAspectRatio="xMidYMid meet">
<metadata>
Created by potrace 1.14, written by Peter Selinger 2001-2017
</metadata>
<g transform="translate(0.000000,512.000000) scale(0.100000,-0.100000)"
fill="#000000" stroke="none">
<path d="M2240 5104 c-550 -70 -1064 -317 -1459 -699 -425 -411 -689 -938
-766 -1528 -20 -156 -20 -478 0 -634 99 -756 510 -1413 1148 -1834 107 -71
348 -193 477 -243 299 -114 588 -166 920 -166 427 0 779 84 1162 277 757 381
1271 1112 1383 1966 20 156 20 478 0 634 -99 756 -510 1413 -1148 1834 -107
71 -348 193 -477 243 -192 73 -403 125 -610 151 -153 18 -482 18 -630 -1z
m-210 -1204 c19 -10 53 -32 75 -50 83 -67 86 -67 450 -68 371 0 368 0 469 77
65 50 133 73 189 65 57 -8 202 -48 312 -85 215 -73 308 -140 394 -282 59 -98
181 -340 210 -417 12 -30 26 -64 31 -75 40 -83 128 -389 154 -535 43 -245 50
-325 51 -570 l0 -245 -27 -55 c-30 -63 -56 -94 -113 -137 -114 -87 -390 -235
-557 -299 -81 -32 -101 -36 -161 -32 -68 4 -70 4 -117 54 -55 57 -80 124 -80
210 0 45 -4 56 -26 73 -34 27 -96 27 -224 0 -232 -48 -281 -53 -500 -53 -219
0 -268 5 -500 53 -52 11 -121 20 -153 20 -49 1 -62 -3 -82 -24 -21 -20 -25
-34 -25 -83 0 -110 -60 -217 -137 -243 -52 -17 -147 -6 -223 25 -136 57 -369
177 -470 244 -125 83 -169 129 -201 208 -22 56 -23 71 -22 284 2 334 45 609
149 940 20 63 40 120 43 125 4 6 16 33 26 60 50 139 173 384 251 501 85 128
164 181 384 256 258 88 347 100 430 58z"/>
<path d="M1834 2741 c-146 -69 -223 -228 -194 -400 29 -172 157 -291 314 -291
153 0 270 108 312 287 37 159 -47 334 -191 403 -85 41 -157 41 -241 1z"/>
<path d="M3067 2755 c-60 -22 -118 -70 -159 -131 -49 -73 -62 -121 -62 -225 0
-78 4 -94 33 -154 64 -129 160 -195 285 -195 122 0 225 72 284 198 24 50 27
69 27 162 0 92 -3 112 -26 161 -37 79 -91 134 -164 169 -71 34 -151 39 -218
15z"/>
</g>
</svg>
